<?xml version="1.0" standalone="no"?>
<!DOCTYPE svg PUBLIC "-//W3C//DTD SVG 20010904//EN"
 "http://www.w3.org/TR/2001/REC-SVG-20010904/DTD/svg10.dtd">
<svg version="1.0" xmlns="http://www.w3.org/2000/svg"
 width="890.000000pt" height="890.000000pt" viewBox="0 0 890.000000 890.000000"
 preserveAspectRatio="xMidYMid meet">
<metadata>
Created by potrace 1.11, written by Peter Selinger 2001-2013
</metadata>
<g transform="translate(0.000000,890.000000) scale(0.100000,-0.100000)"
fill="#000000" stroke="none">
<path d="M992 5513 c4 -367 6 -436 21 -486 42 -144 117 -246 215 -294 80 -39
220 -45 304 -13 83 31 160 105 203 194 62 130 69 192 69 631 l1 390 -142 3
-142 3 -3 -398 c-3 -394 -3 -398 -26 -441 -36 -68 -105 -87 -156 -43 -50 44
-51 50 -56 476 l-5 400 -143 3 -143 3 3 -428z"/>
<path d="M40 5315 l0 -605 145 0 145 0 0 225 0 225 125 0 125 0 0 -225 0 -225
145 0 145 0 0 605 0 605 -145 0 -145 0 0 -215 0 -215 -125 0 -125 0 0 215 0
215 -145 0 -145 0 0 -605z"/>
<path d="M1930 5315 l0 -605 145 0 145 0 2 258 3 257 148 -257 149 -258 119 0
119 0 0 605 0 605 -140 0 -140 0 0 -267 0 -268 -153 267 -152 267 -122 1 -123
0 0 -605z"/>
<path d="M2880 5315 l0 -606 268 3 268 3 76 38 c96 47 157 113 209 222 92 197
92 483 0 680 -52 109 -113 175 -209 222 l-76 38 -268 3 -268 3 0 -606z m499
252 c26 -18 48 -45 68 -84 26 -53 28 -67 28 -168 0 -101 -2 -115 -28 -168 -41
-83 -82 -108 -192 -114 l-85 -6 0 288 0 288 85 -6 c70 -4 93 -10 124 -30z"/>
<path d="M3755 5873 c8 -27 88 -299 177 -605 l162 -558 143 0 142 0 20 68 c11
37 88 301 171 587 83 286 153 528 156 538 5 16 -4 17 -137 15 l-143 -3 -97
-338 c-53 -186 -98 -340 -101 -342 -2 -2 -47 150 -99 338 l-95 342 -157 3
-156 3 14 -48z"/>
<path d="M4757 5913 c-4 -3 -7 -276 -7 -605 l0 -598 350 0 350 0 0 155 0 155
-205 0 -205 0 0 80 0 80 175 0 175 0 0 145 0 145 -175 0 -175 0 0 70 0 70 200
0 200 0 0 155 0 155 -338 0 c-186 0 -342 -3 -345 -7z"/>
<path d="M6430 5315 l0 -605 145 0 145 0 0 150 c0 147 1 151 28 195 l28 45
101 -193 101 -192 166 -3 c91 -1 166 -1 166 1 0 2 -77 151 -170 332 -94 182
-169 337 -167 346 2 9 75 129 161 267 86 137 156 253 156 256 0 3 -69 6 -154
6 l-154 0 -129 -207 -128 -208 -3 208 -2 207 -145 0 -145 0 0 -605z"/>
<path d="M7347 5913 c-4 -3 -7 -276 -7 -605 l0 -598 350 0 350 0 0 155 0 155
-205 0 -205 0 0 80 0 80 175 0 175 0 0 145 0 145 -175 0 -175 0 0 70 0 70 200
0 200 0 0 155 0 155 -338 0 c-186 0 -342 -3 -345 -7z"/>
<path d="M8080 5760 l0 -160 120 0 120 0 0 -445 0 -445 145 0 145 0 0 445 0
445 125 0 125 0 0 160 0 160 -390 0 -390 0 0 -160z"/>
<path d="M5550 5310 l0 -600 145 0 145 0 0 151 0 150 37 -3 37 -3 67 -145 68
-145 155 -3 156 -3 -44 93 c-23 51 -62 135 -86 185 l-43 93 42 46 c82 88 117
210 108 372 -6 119 -25 182 -77 260 -44 66 -92 103 -169 132 -46 18 -77 20
-296 20 l-245 0 0 -600z m430 277 c43 -15 70 -63 70 -127 0 -97 -47 -138 -157
-139 l-53 -1 0 140 0 140 53 -1 c28 0 68 -5 87 -12z"/>
<path d="M1770 4476 c-209 -44 -344 -136 -418 -285 -37 -74 -37 -77 -37 -195
0 -144 14 -185 96 -271 85 -90 167 -123 509 -205 145 -34 175 -52 175 -101 0
-29 -5 -37 -35 -52 -30 -16 -53 -18 -170 -14 -154 6 -234 25 -368 87 -74 35
-84 37 -89 22 -4 -9 -39 -91 -79 -182 -83 -189 -87 -169 39 -221 177 -74 434
-110 631 -90 202 20 350 83 448 190 87 96 124 202 115 331 -8 114 -31 165
-101 236 -95 95 -169 125 -451 188 -178 40 -221 56 -237 91 -10 22 -8 30 9 53
55 74 272 68 473 -14 47 -19 89 -35 93 -37 4 -1 41 79 82 177 56 134 72 182
62 188 -36 23 -169 72 -245 89 -113 27 -405 35 -502 15z"/>
<path d="M5373 4443 c-16 -33 -23 -38 -58 -41 -22 -2 -44 -8 -49 -13 -6 -5
-29 -9 -52 -9 -23 0 -61 -9 -85 -20 -52 -23 -126 -26 -155 -6 -13 10 -25 11
-35 5 -8 -5 -23 -9 -35 -9 -11 0 -47 -22 -78 -50 -31 -27 -60 -50 -63 -50 -2
0 -17 7 -31 15 -15 8 -53 19 -85 25 l-58 12 7 33 c5 28 2 36 -20 50 -14 10
-33 14 -45 10 -12 -4 -35 3 -59 16 l-39 23 -34 -20 c-27 -16 -35 -27 -37 -56
-3 -33 -1 -37 25 -40 19 -2 33 -12 43 -33 8 -16 24 -43 36 -60 31 -44 35 -71
14 -90 -25 -23 -68 -12 -116 29 -61 50 -87 66 -111 66 -24 0 -31 -14 -12 -26
16 -9 38 -66 49 -124 6 -34 27 -76 64 -130 52 -75 85 -154 102 -245 5 -30 13
-40 40 -51 33 -14 34 -16 34 -69 0 -29 -5 -57 -10 -60 -8 -5 -7 -11 1 -21 6
-7 15 -11 20 -8 5 3 9 -1 9 -9 0 -7 15 -20 32 -28 18 -8 35 -22 36 -32 6 -28
-7 -87 -19 -87 -5 0 -28 -12 -50 -26 -40 -25 -41 -26 -35 -72 16 -118 17 -142
9 -157 -9 -15 -11 -15 -26 -1 -8 9 -17 21 -20 28 -7 19 -36 -21 -37 -50 0 -17
5 -22 18 -20 9 1 23 -1 30 -6 8 -5 24 -3 37 4 20 11 29 9 58 -9 20 -12 51 -21
74 -21 22 0 64 -10 93 -22 45 -19 56 -20 84 -9 17 7 64 15 104 18 66 5 74 8
89 34 12 20 25 29 43 29 14 0 31 5 36 10 7 7 25 8 50 2 23 -5 50 -5 67 0 24 8
34 4 78 -31 44 -35 59 -41 99 -41 45 0 48 2 78 48 17 26 47 69 67 96 42 58 45
95 10 140 -14 18 -25 45 -25 59 0 17 -9 32 -25 43 -23 15 -25 22 -25 102 0 73
4 91 25 129 14 23 37 54 50 67 14 14 25 31 25 38 0 8 13 22 30 31 16 10 37 31
46 47 10 16 28 31 41 35 13 3 28 17 33 30 5 14 15 25 21 25 8 0 9 20 4 68 -11
107 -13 112 -49 112 -41 0 -56 16 -56 57 0 19 -6 48 -14 66 -19 47 -10 94 20
101 14 4 32 22 44 46 l20 40 -47 23 c-62 31 -95 39 -167 42 -42 1 -61 6 -68
18 -16 29 -45 20 -65 -20z"/>
<path d="M2730 3730 l0 -730 245 0 245 0 0 180 0 180 48 54 c26 30 50 55 53
55 4 1 86 -105 183 -234 l176 -235 285 0 c326 0 303 -10 218 95 -26 33 -98
128 -159 210 -61 83 -170 230 -243 328 -79 107 -129 183 -124 190 4 7 127 145
273 307 146 162 271 303 279 313 13 16 -1 17 -255 17 l-269 -1 -230 -257 -230
-257 -3 258 -2 257 -245 0 -245 0 0 -730z"/>
<path d="M5890 3730 l0 -730 245 0 245 0 2 319 3 319 264 -319 264 -319 203 0
204 0 0 730 0 730 -240 0 -240 0 -2 -324 -3 -323 -268 323 -268 324 -204 0
-205 0 0 -730z"/>
<path d="M7540 3730 l0 -730 605 0 605 0 0 185 0 185 -360 0 -360 0 0 95 0 95
305 0 305 0 0 180 0 180 -305 0 -305 0 0 80 0 80 345 0 345 0 0 190 0 190
-590 0 -590 0 0 -730z"/>
<path d="M195 4401 c-68 -30 -125 -113 -125 -181 0 -68 57 -151 125 -181 46
-21 163 -25 216 -8 87 30 140 103 140 194 0 82 -44 146 -123 179 -53 23 -181
21 -233 -3z"/>
<path d="M110 3460 l0 -480 205 0 205 0 0 480 0 480 -205 0 -205 0 0 -480z"/>
</g>
</svg>
